<svg id="visual" viewBox="0 0 900 300" width="900" height="300" xmlns="http://www.w3.org/2000/svg" xmlns:xlink="http://www.w3.org/1999/xlink" version="1.1"><rect x="0" y="0" width="900" height="300" fill="#000000"></rect><path d="M0 153L25 150.8C50 148.7 100 144.3 150 140C200 135.7 250 131.3 300 131.7C350 132 400 137 450 139.8C500 142.7 550 143.3 600 132.5C650 121.7 700 99.3 750 97.8C800 96.3 850 115.7 875 125.3L900 135L900 301L875 301C850 301 800 301 750 301C700 301 650 301 600 301C550 301 500 301 450 301C400 301 350 301 300 301C250 301 200 301 150 301C100 301 50 301 25 301L0 301Z" fill="#fa7268"></path><path d="M0 111L25 111.7C50 112.3 100 113.7 150 129C200 144.3 250 173.7 300 182.2C350 190.7 400 178.3 450 165.8C500 153.3 550 140.7 600 143.8C650 147 700 166 750 169.8C800 173.7 850 162.3 875 156.7L900 151L900 301L875 301C850 301 800 301 750 301C700 301 650 301 600 301C550 301 500 301 450 301C400 301 350 301 300 301C250 301 200 301 150 301C100 301 50 301 25 301L0 301Z" fill="#ef5f67"></path><path d="M0 195L25 190.2C50 185.3 100 175.7 150 177.8C200 180 250 194 300 194.8C350 195.7 400 183.3 450 186.8C500 190.3 550 209.7 600 217.8C650 226 700 223 750 215.3C800 207.7 850 195.3 875 189.2L900 183L900 301L875 301C850 301 800 301 750 301C700 301 650 301 600 301C550 301 500 301 450 301C400 301 350 301 300 301C250 301 200 301 150 301C100 301 50 301 25 301L0 301Z" fill="#e34c67"></path><path d="M0 212L25 212.5C50 213 100 214 150 219.7C200 225.3 250 235.7 300 237.8C350 240 400 234 450 229.3C500 224.7 550 221.3 600 217.2C650 213 700 208 750 214.5C800 221 850 239 875 248L900 257L900 301L875 301C850 301 800 301 750 301C700 301 650 301 600 301C550 301 500 301 450 301C400 301 350 301 300 301C250 301 200 301 150 301C100 301 50 301 25 301L0 301Z" fill="#d53867"></path><path d="M0 242L25 246.8C50 251.7 100 261.3 150 259C200 256.7 250 242.3 300 236.8C350 231.3 400 234.7 450 236.5C500 238.3 550 238.7 600 242.2C650 245.7 700 252.3 750 253.3C800 254.3 850 249.7 875 247.3L900 245L900 301L875 301C850 301 800 301 750 301C700 301 650 301 600 301C550 301 500 301 450 301C400 301 350 301 300 301C250 301 200 301 150 301C100 301 50 301 25 301L0 301Z" fill="#c62368"></path></svg>