<svg id="visual" viewBox="0 0 900 300" width="900" height="300" xmlns="http://www.w3.org/2000/svg" xmlns:xlink="http://www.w3.org/1999/xlink" version="1.1"><rect x="0" y="0" width="900" height="300" fill="#441a1a"></rect><path d="M0 214L25 211C50 208 100 202 150 204.7C200 207.3 250 218.7 300 218.8C350 219 400 208 450 203C500 198 550 199 600 208.3C650 217.7 700 235.3 750 233.7C800 232 850 211 875 200.5L900 190L900 0L875 0C850 0 800 0 750 0C700 0 650 0 600 0C550 0 500 0 450 0C400 0 350 0 300 0C250 0 200 0 150 0C100 0 50 0 25 0L0 0Z" fill="#fa7268"></path><path d="M0 169L25 170.8C50 172.7 100 176.3 150 181.8C200 187.3 250 194.7 300 198.7C350 202.7 400 203.3 450 200.8C500 198.3 550 192.7 600 188.7C650 184.7 700 182.3 750 178.5C800 174.7 850 169.3 875 166.7L900 164L900 0L875 0C850 0 800 0 750 0C700 0 650 0 600 0C550 0 500 0 450 0C400 0 350 0 300 0C250 0 200 0 150 0C100 0 50 0 25 0L0 0Z" fill="#f16367"></path><path d="M0 139L25 144.5C50 150 100 161 150 159.5C200 158 250 144 300 141C350 138 400 146 450 152C500 158 550 162 600 158.8C650 155.7 700 145.3 750 139.2C800 133 850 131 875 130L900 129L900 0L875 0C850 0 800 0 750 0C700 0 650 0 600 0C550 0 500 0 450 0C400 0 350 0 300 0C250 0 200 0 150 0C100 0 50 0 25 0L0 0Z" fill="#e85467"></path><path d="M0 142L25 133.3C50 124.7 100 107.3 150 105.3C200 103.3 250 116.7 300 116.7C350 116.7 400 103.3 450 100.2C500 97 550 104 600 112.3C650 120.7 700 130.3 750 135.5C800 140.7 850 141.3 875 141.7L900 142L900 0L875 0C850 0 800 0 750 0C700 0 650 0 600 0C550 0 500 0 450 0C400 0 350 0 300 0C250 0 200 0 150 0C100 0 50 0 25 0L0 0Z" fill="#de4467"></path><path d="M0 62L25 62.5C50 63 100 64 150 68.3C200 72.7 250 80.3 300 86.5C350 92.7 400 97.3 450 99.3C500 101.3 550 100.7 600 100.5C650 100.3 700 100.7 750 95.2C800 89.7 850 78.3 875 72.7L900 67L900 0L875 0C850 0 800 0 750 0C700 0 650 0 600 0C550 0 500 0 450 0C400 0 350 0 300 0C250 0 200 0 150 0C100 0 50 0 25 0L0 0Z" fill="#d23467"></path><path d="M0 29L25 32.2C50 35.3 100 41.7 150 42C200 42.3 250 36.7 300 34C350 31.3 400 31.7 450 33C500 34.3 550 36.7 600 37.7C650 38.7 700 38.3 750 35.8C800 33.3 850 28.7 875 26.3L900 24L900 0L875 0C850 0 800 0 750 0C700 0 650 0 600 0C550 0 500 0 450 0C400 0 350 0 300 0C250 0 200 0 150 0C100 0 50 0 25 0L0 0Z" fill="#c62368"></path></svg>